<?xml version="1.0" encoding="utf-8"?>
<!-- Generator: Adobe Illustrator 22.0.0, SVG Export Plug-In . SVG Version: 6.00 Build 0)  -->
<svg version="1.1" id="Capa_1" xmlns="http://www.w3.org/2000/svg" xmlns:xlink="http://www.w3.org/1999/xlink" x="0px" y="0px"
	 viewBox="0 0 1211 512" style="enable-background:new 0 0 1211 512;" xml:space="preserve">
<style type="text/css">
	.st0{fill:#FDF9F9;}
	.st1{fill:#FDF9F9;stroke:#FFFFFF;stroke-width:15;stroke-linecap:round;stroke-miterlimit:10;}
</style>
<g>
	<g>
		<path class="st0" d="M1211,110.5v-2c0-7.4-3.4-16.1-9.4-22.1l-0.7-0.7c0,0-0.7,0-0.7-0.7c-1.4-1.4-2.7-2-4-3.4
			c-0.7,0-0.7-0.7-1.4-0.7c-1.4-0.7-3.4-1.4-4.7-2c-0.7,0-0.7-0.7-1.4-0.7c-2-0.7-4-1.4-6-1.4c-0.7,0-0.7,0-1.4,0
			c-2,0-4.7-0.7-7.4-0.7H735.3c-2.7,0-5.3,0-8.1,0.7c-0.7,0-1.4,0-2,0.7c-2,0.7-4,0.7-5.3,1.4c-0.7,0-0.7,0.7-1.4,0.7
			c-1.4,0.7-3.4,1.4-4.7,2l-0.7,0.7c-1.4,0.7-2.7,2-4,2.7c-0.7,0.7-1.4,1.4-2,2c-4.7,5.4-7.4,11.4-8.1,18.2c0,0.7,0,0.7,0,1.4v299
			c0,0.7,0,0.7,0,1.4c1.4,9.4,6,17.5,12.8,22.1c6,4,13.4,6.7,22.1,6.7h441.4c0,0,0,0,0.7,0l0,0c2,0,4.7,0,6.7-0.7c0.7,0,0.7,0,1.4,0
			c2-0.7,4-0.7,5.3-1.4h0.7c14.8-5.3,20.8-18.2,20.8-30.2v-2v-0.7v-0.7V112.5c0-0.7,0-0.7,0-1.4C1211,111.2,1211,111.2,1211,110.5z
			 M1168,101.1L956.4,307.3l-48.4-47l0,0L742,101.1L1168,101.1L1168,101.1z M723.9,397.4V117.9l156.5,150.5L723.9,397.4z
			 M949.7,411.5H746.1l152.5-125l49,47.7c2,2,4,2.7,6,3.4h0.7c0.7,0,0.7,0,1.4,0l0,0c0.7,0,1.4,0,1.4,0h0.7c2-0.7,4.7-1.4,6-3.4
			l46.3-45l153.1,122.3L949.7,411.5L949.7,411.5z M1186.1,398l-157.2-127l157.2-153.1V398z"/>
	</g>
</g>
<line class="st1" x1="207" y1="238" x2="643" y2="237"/>
<line class="st1" x1="104" y1="143" x2="644" y2="146"/>
<line class="st1" x1="323" y1="320" x2="636" y2="321"/>
</svg>
