<svg width="84" height="82" viewBox="0 0 84 82" fill="none" xmlns="http://www.w3.org/2000/svg">
<g clip-path="url(#clip0)">
<path d="M51.5443 8.68059C34.0581 6.55777 9.80986 9.40759 2.27324 27.8442C-0.8844 35.5212 -1.56955 46.4261 5.60961 52.5329C14.0399 59.6865 25.1512 58.2616 35.5774 58.6687C35.8157 63.3508 37.2456 68.3232 38.7052 72.6852C39.2116 74.2264 41.0586 74.2845 41.982 73.0923C43.8292 70.7077 44.6332 67.625 45.4078 64.7752C45.795 63.3212 46.8671 61.053 46.778 59.3373C46.9866 59.3373 47.1653 59.3373 47.4039 59.25C61.4048 54.2192 81.4227 59.134 83.8058 39.912C86.0996 21.6211 67.6605 10.6286 51.5443 8.68059ZM78.5034 45.7861C74.1244 55.4406 55.119 52.4744 46.4206 55.7023C45.4971 56.0512 45.1397 56.8655 45.1697 57.6218C42.9948 57.9999 42.7565 60.6458 42.3097 62.42C41.8927 64.0194 41.5054 65.706 40.9394 67.3342C39.9861 63.612 39.1818 59.8316 37.6328 56.4002C37.2753 55.615 36.2923 55.7604 35.8157 56.313C29.7685 54.9462 23.9001 54.859 17.7635 54.0157C-0.437563 51.5732 2.24345 32.0023 10.7035 22.0861C20.385 10.745 40.0457 10.4251 53.6596 12.6642C69.1198 15.2235 86.2786 28.629 78.5034 45.7861Z" fill="white"/>
<path d="M26.9088 26.5353C26.4322 25.2849 24.7044 24.9068 23.9299 26.1572C22.4404 28.5709 22.8575 32.4094 22.7085 35.1138C22.6192 36.5969 22.5 38.1963 22.4107 39.7957C20.8914 40.0283 19.402 40.1446 17.8529 40.2609C17.8529 39.0687 17.8231 37.8764 17.8231 36.6841C17.8231 34.7358 17.9125 32.7584 18.0019 30.81C18.0317 29.9667 18.121 29.1234 18.27 28.2801C18.5083 27.0296 18.8062 27.3786 18.0019 27.7566C19.0147 27.2623 19.0743 25.5466 18.0019 25.0522C11.6568 22.2606 14.308 44.6229 14.5166 47.4437C14.6655 49.4792 17.6444 49.4792 17.7338 47.4437C17.8231 45.9603 17.8231 44.5063 17.8231 43.0235C19.3126 43.1108 20.8318 43.1398 22.3511 43.0817C22.4106 44.6811 22.6192 46.2223 23.0958 47.6472C23.2745 48.1994 23.7512 48.781 24.3767 48.8976C25.0023 49.0137 25.6874 48.9849 26.1939 48.6068C26.5513 48.3451 26.5811 47.9671 26.4322 47.7051C26.7599 46.5713 26.5215 45.4369 26.462 44.1576C26.4024 41.6859 26.4917 39.185 26.6109 36.7132C26.8492 33.6598 28.0408 29.4433 26.9088 26.5353Z" fill="white"/>
<path d="M37.2753 26.8261C37.2455 26.7679 37.1859 26.7098 37.1562 26.6516C36.6497 25.9828 36.0838 25.8083 35.2794 25.8955C34.3262 26.0119 33.3432 26.0409 32.3601 26.0991C31.8835 25.8374 31.1984 25.9828 30.96 26.5062C30.5132 26.8842 30.4238 27.524 30.6324 28.0184C29.56 34.5613 29.4706 41.4241 29.411 47.9959C29.411 49.0718 30.2749 49.7116 31.2579 49.7988C33.79 50.0605 37.1562 49.5952 36.9476 46.3965C36.8881 45.4081 35.8454 44.7098 34.8922 45.2333C34.1773 45.6404 33.7006 45.9312 33.1644 46.0766C33.1942 44.9134 33.224 43.7502 33.2836 42.587C33.7006 42.6452 34.1177 42.6743 34.5049 42.7324C35.339 42.8487 35.905 42.6452 36.4114 41.9764L36.4412 41.947C36.7391 41.5689 36.7391 40.7547 36.4412 40.377L36.4114 40.3479C35.905 39.7081 35.339 39.4755 34.5049 39.5918C34.1475 39.65 33.7602 39.679 33.3729 39.7081C33.4921 36.0732 33.5219 32.4382 33.1048 28.8905C33.8198 28.9195 34.5645 28.9486 35.2497 29.0649C36.054 29.1813 36.6497 28.9777 37.1264 28.3089C37.1562 28.2507 37.2157 28.1925 37.2455 28.1344C37.5136 27.8148 37.5136 27.175 37.2753 26.8261Z" fill="white"/>
<path d="M46.2716 44.8555C45.4971 44.6229 44.6927 44.5066 43.8884 44.3612C43.7696 38.7491 43.3823 33.0494 42.6969 27.4949C42.5181 25.9828 40.4627 25.9828 40.284 27.4949C39.5988 33.5726 40.1052 39.8247 40.1052 45.9024C40.1052 46.7454 40.701 47.4724 41.5053 47.7051C43.1139 48.1413 44.6034 48.4902 46.2418 48.0252C47.91 47.56 47.8507 45.3211 46.2716 44.8555Z" fill="white"/>
<path d="M54.7022 46.1059C54.3147 46.2807 53.9873 46.513 53.6596 46.6584C53.6894 40.3191 53.8678 33.8924 52.3191 27.6984C52.0212 26.4771 50.0548 26.7388 50.0849 27.9892C50.2932 34.8521 49.9658 41.6567 49.8463 48.5196C49.8463 49.3919 50.4421 50.0314 51.2464 50.3222C53.6295 51.1946 55.8637 50.7005 56.9364 48.2866C57.5915 46.8329 56.281 45.3789 54.7022 46.1059Z" fill="white"/>
<path d="M65.7537 28.6872C64.5919 27.1459 62.179 28.1056 62.2386 29.6177C62.179 29.6177 62.1492 29.6177 62.0595 29.6177C61.2255 29.5886 60.8382 30.3156 60.4807 30.8972C59.3193 32.8456 58.753 35.3174 58.2168 37.4693C57.3529 40.9297 56.3401 46.7166 60.153 48.8682C64.5618 51.3694 67.4812 45.7276 67.9578 42.4416C68.5836 38.3707 68.3751 32.1477 65.7537 28.6872ZM63.9961 43.3434C63.8174 44.0704 62.5963 46.6585 61.6726 45.2335C60.1831 42.9072 61.7027 38.1965 62.2684 35.7826C62.5663 34.5322 62.8942 33.2818 63.2514 32.0313C63.2514 32.0023 63.2514 31.9732 63.2815 31.9441C64.1156 33.9797 64.3241 36.4515 64.4135 38.487C64.5025 40.0867 64.3837 41.744 63.9961 43.3434Z" fill="white"/>
</g>
<defs>
<clipPath id="clip0">
<rect width="84" height="82" fill="white"/>
</clipPath>
</defs>
</svg>
