<svg width="72" height="72" viewBox="0 0 72 72" fill="none" xmlns="http://www.w3.org/2000/svg">
<g clip-path="url(#clip0)">
<path d="M32.0143 55.7936C30.4449 55.4776 28.9111 56.4973 28.5951 58.0666C28.2791 59.6359 29.2987 61.1698 30.8681 61.4858C32.4375 61.8018 33.9713 60.7821 34.2873 59.2128C34.6033 57.6436 33.5837 56.1097 32.0143 55.7936ZM31.2501 59.5884C30.727 59.4831 30.3872 58.9717 30.4925 58.4487C30.5978 57.9256 31.109 57.5857 31.6322 57.691C32.1554 57.7964 32.4952 58.3077 32.3899 58.8308C32.2846 59.3538 31.7733 59.6938 31.2501 59.5884Z" fill="white"/>
<path d="M40.3554 14.3722C40.9133 14.4846 41.4587 14.122 41.5711 13.564C41.6834 13.0061 41.3209 12.4607 40.7629 12.3483C40.205 12.2359 39.6596 12.5985 39.5472 13.1565C39.4348 13.7144 39.7974 14.2598 40.3554 14.3722Z" fill="white"/>
<path d="M55.1883 21.3763L23.9675 15.0894C23.4436 14.9839 22.9333 15.3231 22.8278 15.8471L16.0543 49.4839C15.9488 50.0078 16.2881 50.5181 16.812 50.6236L48.0328 56.9105C48.5567 57.016 49.067 56.6768 49.1725 56.1529L55.9459 22.5161C56.0514 21.9921 55.7122 21.4818 55.1883 21.3763ZM47.4661 54.8221L18.1428 48.9173L24.5341 17.1779L53.8575 23.0827L47.4661 54.8221Z" fill="white"/>
<path d="M56.1527 9.45591L27.6918 3.72474C24.3153 3.04482 21.0152 5.23859 20.3353 8.61507L10.957 55.1876C10.2771 58.564 12.4709 61.8641 15.8473 62.544L44.3083 68.2752C47.6848 68.9551 50.9848 66.7613 51.6648 63.3849L61.043 16.8124C61.723 13.4359 59.5292 10.1358 56.1527 9.45591ZM49.7674 63.0028C49.2981 65.333 47.0206 66.847 44.6904 66.3778L16.2294 60.6466C13.8992 60.1774 12.3852 57.8999 12.8544 55.5696L22.2327 8.99715C22.7019 6.6669 24.9794 5.15289 27.3097 5.62213L55.7706 11.3533C58.1009 11.8225 59.6149 14.1 59.1457 16.4303L49.7674 63.0028Z" fill="white"/>
<path d="M35.5485 38.2421C39.6375 39.0655 43.634 36.4087 44.4574 32.3197C45.2808 28.2307 42.6241 24.2342 38.535 23.4108C34.446 22.5874 30.4495 25.2441 29.6261 29.3331C28.8027 33.4221 31.4595 37.4187 35.5485 38.2421ZM38.153 25.3082C41.1958 25.9209 43.1727 28.8948 42.56 31.9376C41.9473 34.9804 38.9733 36.9574 35.9305 36.3447C32.8878 35.7319 30.9108 32.758 31.5235 29.7152C32.1362 26.6724 35.1102 24.6954 38.153 25.3082Z" fill="white"/>
<path d="M23.5309 46.5165C23.977 46.811 24.5772 46.6881 24.8717 46.242C27.0354 42.9645 30.9196 41.3473 34.7674 42.1222C38.6152 42.897 41.5708 45.8915 42.2972 49.751C42.3723 50.15 42.6824 50.4455 43.0574 50.521C43.1761 50.5449 43.3011 50.5468 43.4273 50.5231C43.9525 50.4242 44.2981 49.9183 44.1994 49.393C43.3263 44.7548 39.774 41.156 35.1495 40.2248C30.5249 39.2935 25.8566 41.2368 23.2564 45.1757C22.962 45.6219 23.0849 46.2222 23.5309 46.5165Z" fill="white"/>
</g>
<defs>
<clipPath id="clip0">
<rect width="60" height="60" fill="white" transform="translate(12.5127 0.668152) rotate(11.3854)"/>
</clipPath>
</defs>
</svg>
