<svg width="63" height="65" viewBox="0 0 63 65" fill="none" xmlns="http://www.w3.org/2000/svg">
<g clip-path="url(#clip0)">
<path d="M57.8132 31.4212C59.4533 22.2305 56.7759 9.59667 47.0201 3.57624C40.8585 0.00995368 33.5907 -0.933654 26.7647 0.946454C17.3094 3.55518 10.3594 10.5555 8.17386 19.6721C7.68662 21.5213 7.48009 23.4372 7.56189 25.3516C7.66657 26.5393 7.87901 27.7144 8.19649 28.8612C8.6237 30.3207 8.83528 31.8384 8.82384 33.363C8.7798 35.1779 7.56816 37.0609 6.49798 38.7225C5.33136 40.5357 4.3238 42.1016 4.90809 43.5457C5.46261 44.5246 6.43857 45.1696 7.53224 45.2803C7.59522 45.2919 7.65894 45.2987 7.72291 45.3003C8.01518 45.2634 8.30819 45.3634 8.52136 45.573C8.73454 45.7827 8.84549 46.0798 8.82384 46.3828C8.82384 48.6333 8.87821 49.7946 9.77925 50.3271C9.70065 50.4964 9.64579 50.6765 9.61626 50.8617C9.52573 51.497 9.74752 52.137 10.2077 52.5692C10.6653 53.0265 11.245 53.3318 11.8724 53.4459C11.9164 53.4565 11.9585 53.4644 11.9994 53.4745C12.0243 53.6355 12.0352 53.7985 12.0323 53.9616C12.0248 54.3643 11.9971 54.7665 11.9493 55.1662C11.775 56.8986 11.5362 59.2714 14.8953 60.4041C15.5695 60.5985 16.2684 60.6862 16.968 60.6643C20.1488 60.5186 23.2923 59.8968 26.2999 58.8187C27.1682 60.381 27.6917 62.1218 27.8328 63.917C27.8327 64.2042 27.9433 64.4797 28.1402 64.6829C28.337 64.886 28.6041 65.0001 28.8826 65.0001H55.1245C55.5733 64.9943 55.9683 64.6927 56.1045 64.2513C56.2425 63.8038 56.0922 63.3151 55.7293 63.0317C54.6433 62.1809 51.0466 53.2168 50.936 49.997C51.253 49.2544 51.6776 48.4206 52.1805 47.452C54.9186 42.4734 56.8229 37.0537 57.8132 31.4212ZM48.8289 49.8883C48.8556 52.4783 51.1187 59.322 53.063 62.8341H29.8433C29.5819 61.1747 29.0608 59.5703 28.3004 58.0835C31.3417 56.8537 34.0207 55.2725 35.3066 53.5372C35.6566 53.0616 35.5678 52.3835 35.1078 52.021C34.648 51.6585 33.9905 51.7482 33.6377 52.2214C30.6671 56.2319 18.3067 59.2769 15.5472 58.3456C13.7994 57.7559 13.8691 57.0637 14.0372 55.3906C14.0929 54.9163 14.1244 54.4394 14.1316 53.9618C14.1316 52.1369 13.4181 51.5922 12.3458 51.3357C12.1435 51.3059 11.9502 51.2289 11.781 51.1104C11.987 50.9072 12.2209 50.7364 12.475 50.6033C12.9132 50.3812 13.1452 49.8768 13.0347 49.3862C12.9242 48.8955 12.5008 48.5482 12.0126 48.5478C11.6334 48.5478 11.2121 48.5478 10.9906 48.5192C10.924 47.8093 10.9013 47.0958 10.923 46.3829C10.9435 45.5289 10.6289 44.7025 10.0505 44.0913C9.4721 43.4801 8.67881 43.1358 7.85084 43.1365C7.09433 42.9721 6.86467 42.7605 6.84524 42.7114C6.69246 42.3355 7.70421 40.7649 8.24754 39.9209C9.41305 38.1102 10.8636 35.8565 10.923 33.4182C10.9524 32.0652 10.8065 30.7142 10.4891 29.401C11.6337 28.3618 12.9845 27.5932 14.4472 27.1492C14.9684 27.0552 15.504 27.094 16.0073 27.2617C16.5662 27.4206 17.1439 27.082 17.2979 26.5056C17.4519 25.929 17.1238 25.3329 16.5651 25.174C15.7384 24.9115 14.8621 24.862 14.0126 25.0296C12.5292 25.4194 11.1429 26.1298 9.94531 27.1136C9.80189 26.4827 9.70483 25.8416 9.65501 25.1956C9.58391 23.5079 9.77175 21.8191 10.2116 20.192C12.2413 11.7283 18.4717 5.47628 27.3078 3.03838C33.5846 1.30156 40.2705 2.16166 45.9417 5.43554C54.8384 10.9251 57.2616 22.5504 55.7486 31.0288C54.8053 36.4432 52.9727 41.6518 50.3301 46.4298C49.7529 47.5409 49.2547 48.5002 48.8949 49.388C48.8342 49.5469 48.8114 49.7184 48.8289 49.8883Z" fill="white"/>
<path d="M50.9122 33.8955C51.0624 32.2249 49.954 30.7115 48.3552 30.4043L46.3451 27.5296C46.4684 27.2951 46.5629 27.0455 46.6263 26.7868L48.573 25.9837C49.472 27.0396 50.9282 27.3774 52.1787 26.8201C53.4292 26.2629 54.1892 24.9375 54.0605 23.5383C53.9319 22.139 52.9436 20.985 51.6138 20.6804L50.0368 17.4348C51.143 16.2719 51.2386 14.4417 50.2597 13.163C49.2808 11.8842 47.533 11.556 46.1803 12.397L44.4218 10.8906C44.5549 10.5317 44.6245 10.1512 44.6274 9.76694C44.6303 8.44005 43.849 7.24528 42.6555 6.7512C41.4619 6.257 40.0969 6.56324 39.21 7.52411L36.098 6.7215C35.7253 5.32875 34.5011 4.3609 33.1006 4.35214C31.7002 4.34338 30.4647 5.29575 30.0756 6.68368L25.9166 7.54188C24.8318 6.33492 23.0413 6.16143 21.7577 7.13905C20.4741 8.11654 20.1072 9.93294 20.9053 11.3582L18.8674 14.1583C17.407 14.4307 16.3309 15.7207 16.2875 17.2512C16.2441 18.7817 17.2452 20.1344 18.6876 20.4945L20.3727 24.7866C19.4482 25.723 19.1753 27.1487 19.6853 28.3776C20.1952 29.6064 21.3838 30.3866 22.6786 30.3424C23.9734 30.2982 25.1095 29.439 25.5397 28.1781H31.1752C31.6457 29.6714 33.1139 30.5755 34.6111 30.294L38.0958 35.7629C37.2018 36.7856 37.0319 38.2794 37.672 39.4878C38.3122 40.6962 39.6227 41.3552 40.9396 41.131C42.2566 40.9067 43.2923 39.8483 43.5222 38.4917L46.1235 36.3465C46.6185 36.6684 47.1913 36.8403 47.7765 36.8423C49.4028 36.8434 50.7622 35.5662 50.9122 33.8955ZM50.9256 22.763C51.4506 22.7618 51.8957 23.1611 51.9675 23.6975C52.0395 24.234 51.7161 24.7429 51.2107 24.8889C50.7052 25.0348 50.1728 24.773 49.9643 24.2759C49.9608 24.266 49.9627 24.2557 49.9589 24.2458L49.9523 24.2353C49.9034 24.1115 49.8775 23.9796 49.8759 23.8459C49.8766 23.2481 50.3461 22.7636 50.9256 22.763ZM46.749 14.9618C46.8497 14.4591 47.2792 14.0985 47.7767 14.0989C48.3565 14.0989 48.8264 14.5837 48.8264 15.1819C48.8264 15.78 48.3565 16.2648 47.7767 16.2648C47.6468 16.2632 47.5185 16.2364 47.3982 16.1859L47.3892 16.1798C47.38 16.176 47.3703 16.178 47.3608 16.1743C46.9037 15.9711 46.6481 15.4646 46.749 14.9618ZM45.7048 17.6093L43.765 22.6133L40.3647 19.8067C40.826 19.4007 41.163 18.8653 41.3352 18.2654L45.4942 17.4072C45.5602 17.4794 45.6324 17.5436 45.7048 17.6093ZM44.5872 26.3046C44.4459 26.8255 43.9535 27.1588 43.434 27.0849C42.9147 27.011 42.5278 26.553 42.5283 26.012C42.5289 25.4141 42.9984 24.9295 43.5779 24.929C43.7078 24.9306 43.8361 24.9574 43.9564 25.0079L43.9654 25.014C43.9749 25.018 43.9848 25.0163 43.9943 25.0199C44.4754 25.2351 44.7286 25.7836 44.5872 26.3046ZM41.4785 8.68398C42.0583 8.68398 42.5282 9.16879 42.5282 9.76694C42.5282 10.3651 42.0582 10.8499 41.4785 10.8499C40.8989 10.8499 40.4289 10.3651 40.4289 9.76694C40.4295 9.16904 40.899 8.68461 41.4785 8.68398ZM35.9547 8.91699L38.3523 9.53545C38.3467 9.61337 38.3296 9.68774 38.3296 9.76706C38.3315 11.5606 39.7403 13.0142 41.4787 13.0161C42.0415 13.013 42.5932 12.8527 43.0748 12.5521L44.8335 14.0584C44.7004 14.4173 44.6306 14.7978 44.6277 15.1821C44.6277 15.2476 44.6428 15.3089 44.6464 15.3735L41.2277 16.0789C40.799 15.0494 39.8866 14.3202 38.8132 14.1495L34.9699 10.1844C35.3966 9.85438 35.7355 9.41843 35.9547 8.91699ZM39.3793 17.348C39.3793 17.9462 38.9094 18.431 38.3296 18.431C37.7501 18.4304 37.2805 17.9459 37.28 17.348C37.28 16.7499 37.7499 16.2651 38.3296 16.2651C38.9094 16.2651 39.3793 16.7499 39.3793 17.348ZM33.0812 6.51793C33.6609 6.51793 34.1308 7.00274 34.1308 7.60089C34.1308 8.19904 33.6609 8.68385 33.0812 8.68385C32.5015 8.68385 32.0316 8.19904 32.0316 7.60089C32.032 7.00313 32.5017 6.51857 33.0812 6.51793ZM33.2892 11.5137L36.4407 14.7648C35.9507 15.1467 35.5799 15.6682 35.374 16.2649H32.8877C32.6398 15.5479 32.1554 14.9436 31.5192 14.5578L33.2892 11.5137ZM26.7644 9.57568L30.1831 8.87029C30.4514 9.50867 30.9109 10.0417 31.4941 10.3911L29.5887 13.6676L26.2948 11.487C26.6121 10.9729 26.7814 10.3764 26.7831 9.76694C26.7831 9.70145 26.768 9.64015 26.7644 9.57568ZM30.9818 17.348C30.9818 17.9462 30.5119 18.431 29.9322 18.431C29.3527 18.4304 28.883 17.9459 28.8825 17.348C28.8825 16.7499 29.3524 16.2651 29.9322 16.2651C30.5119 16.2651 30.9818 16.7499 30.9818 17.348ZM23.6341 8.68398C24.2138 8.68398 24.6837 9.16879 24.6837 9.76694C24.6837 10.3651 24.2138 10.8499 23.6341 10.8499C23.0543 10.8499 22.5845 10.3651 22.5845 9.76694C22.5849 9.16904 23.0546 8.68461 23.6341 8.68398ZM22.4916 12.7866C23.1311 13.0587 23.8431 13.0898 24.5027 12.8746L27.7436 15.02C27.3987 15.3687 27.1362 15.7947 26.9766 16.2649H22.391C22.1618 15.5946 21.7261 15.02 21.1504 14.6295L22.4916 12.7866ZM19.4353 18.431C18.8556 18.431 18.3857 17.9462 18.3857 17.348C18.3863 16.7501 18.8558 16.2656 19.4353 16.2651C20.015 16.2651 20.4849 16.7499 20.4849 17.348C20.4849 17.9462 20.015 18.431 19.4353 18.431ZM22.5843 28.178C22.0046 28.178 21.5347 27.6931 21.5347 27.095C21.5347 26.4969 22.0046 26.0121 22.5843 26.0121C23.1641 26.0121 23.634 26.497 23.634 27.095C23.6335 27.6929 23.1638 28.1774 22.5843 28.178ZM23.1813 23.9082C22.9847 23.8679 22.7847 23.8471 22.5843 23.8459C22.4804 23.8459 22.3822 23.8674 22.2809 23.8776L20.8505 20.2343C21.5688 19.8588 22.12 19.2133 22.3908 18.431H26.9765C27.1656 18.9765 27.4929 19.4596 27.9244 19.8301L23.1813 23.9082ZM31.1753 26.012H25.5399C25.4278 25.6876 25.2661 25.3837 25.0609 25.1121L30.2161 20.6798L31.9715 24.7421C31.6128 25.0946 31.34 25.5298 31.1753 26.012ZM32.8877 18.431H35.3741C35.6219 19.1481 36.1064 19.7523 36.7426 20.1381L34.5601 23.8908C34.4182 23.8657 34.2749 23.8507 34.131 23.846C34.0496 23.846 33.9733 23.8646 33.8934 23.8708L32.0915 19.701C32.4502 19.3483 32.723 18.9131 32.8877 18.431ZM34.1308 28.178C33.5511 28.178 33.0812 27.6931 33.0812 27.095C33.0812 26.4969 33.5512 26.0121 34.1308 26.0121C34.7106 26.0121 35.1805 26.497 35.1805 27.095C35.18 27.6929 34.7103 28.1774 34.1308 28.178ZM38.6114 21.1338L41.5429 23.5534C41.0817 23.9595 40.7445 24.4949 40.5723 25.0947L37.0289 25.8259C36.8829 25.4798 36.6797 25.1626 36.4283 24.8885L38.6114 21.1338ZM40.4289 39.008C39.8492 39.008 39.3793 38.5232 39.3793 37.925C39.3793 37.3269 39.8492 36.8421 40.4289 36.8421C41.0086 36.8421 41.4785 37.3269 41.4785 37.925C41.478 38.5229 41.0084 39.0075 40.4289 39.008ZM44.6276 33.5931C44.6314 33.9549 44.6945 34.3134 44.8142 34.6535L43.0422 36.115C42.3797 35.0472 41.1574 34.4985 39.9485 34.7261L36.4638 29.2573C36.7752 28.8991 37.0049 28.4738 37.1364 28.0124L40.6798 27.2812C41.3554 28.9274 43.194 29.6998 44.7919 29.0087L46.0868 30.8606C45.1798 31.4543 44.6294 32.4847 44.6276 33.5931ZM45.6499 23.5846L47.6527 18.418C47.6947 18.4198 47.7342 18.431 47.7766 18.431C47.9031 18.4259 48.0291 18.4127 48.1541 18.3916L49.425 21.0075C48.4132 21.5707 47.7807 22.6598 47.7766 23.846C47.7766 23.8899 47.7876 23.9307 47.7892 23.9742L46.3779 24.5564C46.1974 24.1877 45.9503 23.8578 45.6499 23.5846ZM47.7766 34.676C47.1969 34.676 46.727 34.1912 46.727 33.5931C46.7276 32.9952 47.1971 32.5106 47.7766 32.5101C48.3563 32.5101 48.8262 32.9949 48.8262 33.5931C48.8262 34.1912 48.3563 34.676 47.7766 34.676Z" fill="white"/>
</g>
<defs>
<clipPath id="clip0">
<rect width="63" height="65" fill="white"/>
</clipPath>
</defs>
</svg>
