<svg width="57" height="58" viewBox="0 0 57 58" fill="none" xmlns="http://www.w3.org/2000/svg">
<g clip-path="url(#clip0)">
<path d="M33.9785 2.15231C33.5171 2.15231 33.1436 2.53242 33.1436 3.00192V24.4054C32.8518 24.5413 32.5926 24.7479 32.3891 25.0165L22.3235 38.2974L18.2774 32.9591C17.6003 32.0652 16.2756 32.0643 15.5981 32.9591L0.366153 53.0559C-0.518384 54.2227 0.300052 55.9162 1.74819 55.9162H32.0303C32.4913 55.9162 32.8653 55.5361 32.8653 55.0666C32.8653 54.5971 32.4913 54.217 32.0303 54.217H12.3665C12.4009 54.1719 22.9849 40.2073 22.9849 40.2073L33.7115 26.0542C33.8463 25.8763 34.1103 25.8759 34.2456 26.0542L55.274 53.7993C55.4044 53.9714 55.2857 54.217 55.0722 54.217H35.9268C35.4654 54.217 35.0918 54.5971 35.0918 55.0666C35.0918 55.5361 35.4654 55.9162 35.9268 55.9162H55.0722C56.6699 55.9162 57.5714 54.0484 56.5964 52.7612L35.568 25.0165C35.3645 24.7479 35.1053 24.5413 34.8135 24.4054V14.8863H37.6959C38.1568 14.8863 38.5308 14.5057 38.5308 14.0367C38.5308 13.5672 38.1568 13.1871 37.6959 13.1871H34.8135V5.3087H45.7115L42.98 8.28322C42.483 8.82396 42.483 9.67136 42.98 10.2121L45.7115 13.1866H41.5923C41.1309 13.1866 40.7574 13.5672 40.7574 14.0362C40.7574 14.5057 41.1309 14.8858 41.5923 14.8858H46.3603C47.5728 14.8858 48.2007 13.4088 47.3745 12.5091L44.3799 9.24788L47.3745 5.98662C48.2025 5.08524 47.5706 3.60948 46.3603 3.60948H34.8135V3.00192C34.8135 2.53287 34.4395 2.15231 33.9785 2.15231ZM1.68861 54.0935L16.9201 33.9967C16.924 33.9919 16.9271 33.9879 16.9375 33.9879C16.948 33.9879 16.951 33.9919 16.9549 33.9967L21.2689 39.6887L10.2574 54.217H1.74819C1.68383 54.217 1.64947 54.1453 1.68861 54.0935Z" fill="white"/>
</g>
<defs>
<clipPath id="clip0">
<rect width="57" height="58" fill="white"/>
</clipPath>
</defs>
</svg>
